<?xml version="1.0" encoding="iso-8859-1"?>
<!-- Generator: Adobe Illustrator 19.0.0, SVG Export Plug-In . SVG Version: 6.00 Build 0)  -->
<svg version="1.1" id="Capa_1" xmlns="http://www.w3.org/2000/svg" xmlns:xlink="http://www.w3.org/1999/xlink" x="0px" y="0px"
	 viewBox="0 0 511.639 511.639" style="enable-background:new 0 0 511.639 511.639;" xml:space="preserve">
<g>
	<g>
		<path d="M164.119,351.754h-0.078c-2.209,0-3.958,1.795-3.958,3.997c0,2.217,1.83,3.997,4.036,3.997
			c2.209,0,3.997-1.781,3.997-3.997C168.116,353.549,166.328,351.754,164.119,351.754z"/>
	</g>
</g>
<g>
	<g>
		<path d="M184.105,351.754h-0.078c-2.209,0-3.958,1.795-3.958,3.997c0,2.217,1.831,3.997,4.036,3.997
			c2.209,0,3.997-1.781,3.997-3.997C188.102,353.549,186.314,351.754,184.105,351.754z"/>
	</g>
</g>
<g>
	<g>
		<path d="M204.094,351.754h-0.078c-2.209,0-3.958,1.795-3.958,3.997c0,2.217,1.83,3.997,4.036,3.997
			c2.21,0,3.997-1.781,3.997-3.997C208.091,353.549,206.303,351.754,204.094,351.754z"/>
	</g>
</g>
<g>
	<g>
		<path d="M164.119,327.77h-0.078c-2.209,0-3.958,1.796-3.958,3.997c0,2.218,1.83,3.998,4.036,3.998c2.209,0,3.997-1.78,3.997-3.998
			C168.116,329.566,166.328,327.77,164.119,327.77z"/>
	</g>
</g>
<g>
	<g>
		<path d="M184.105,327.77h-0.078c-2.209,0-3.958,1.796-3.958,3.997c0,2.218,1.831,3.998,4.036,3.998
			c2.209,0,3.997-1.78,3.997-3.998C188.102,329.566,186.314,327.77,184.105,327.77z"/>
	</g>
</g>
<g>
	<g>
		<path d="M204.094,327.77h-0.078c-2.209,0-3.958,1.796-3.958,3.997c0,2.218,1.83,3.998,4.036,3.998c2.21,0,3.997-1.78,3.997-3.998
			C208.091,329.566,206.303,327.77,204.094,327.77z"/>
	</g>
</g>
<g>
	<g>
		<path d="M299.786,287.799H75.947c-11.019,0-19.985,8.963-19.985,19.986v183.869c0,11.023,8.965,19.985,19.985,19.985h223.84
			c11.015,0,19.986-8.962,19.985-19.985V307.785C319.772,296.762,310.802,287.799,299.786,287.799z M311.778,491.654
			c0,6.62-5.379,11.991-11.992,11.991H75.947c-6.612,0-11.991-5.371-11.991-11.991V307.785c0-6.604,5.379-11.991,11.991-11.991
			h223.839c6.613,0,11.992,5.387,11.992,11.991V491.654z"/>
	</g>
</g>
<g>
	<g>
		<path d="M323.77,263.816c-2.209,0-3.997,1.796-3.997,3.997c0,2.218,1.788,3.997,3.997,3.997c6.612,0,11.991,5.387,11.991,11.992
			v183.869c0,3.186-1.257,6.198-3.528,8.463c-1.562,1.561-1.562,4.09-0.008,5.652c0.78,0.78,1.804,1.171,2.834,1.171
			c1.023,0,2.037-0.391,2.818-1.156c3.794-3.778,5.878-8.807,5.878-14.131V283.802C343.755,272.779,334.786,263.816,323.77,263.816z
			"/>
	</g>
</g>
<g>
	<g>
		<path d="M299.786,175.891H75.947c-11.019,0-19.985,8.963-19.985,19.986v79.946c0,11.023,8.965,19.986,19.985,19.986h223.84
			c11.015,0,19.986-8.963,19.985-19.986v-79.946C319.772,184.854,310.802,175.891,299.786,175.891z M311.778,275.823
			c0,6.604-5.379,11.991-11.992,11.991H75.947c-6.612,0-11.991-5.387-11.991-11.991v-79.946c0-6.613,5.379-11.992,11.991-11.992
			h223.839c6.613,0,11.992,5.379,11.992,11.992V275.823z"/>
	</g>
</g>
<g>
	<g>
		<path d="M323.77,151.901h-31.978c-2.209,0-3.997,1.788-3.997,3.997c0,2.209,1.788,3.997,3.997,3.997h31.978
			c6.612,0,11.991,5.379,11.991,11.991v79.943c0,6.612-5.379,11.987-11.991,11.987c-2.209,0-3.997,1.796-3.997,3.997
			c0,2.218,1.788,3.997,3.997,3.997c11.016,0,19.986-8.958,19.985-19.981v-79.943C343.755,160.863,334.786,151.901,323.77,151.901z"
			/>
	</g>
</g>
<g>
	<g>
		<path d="M115.919,151.9H99.931c-5.434,0-10.524,2.155-14.33,6.074c-1.538,1.585-1.499,4.114,0.086,5.652
			c0.777,0.757,1.78,1.132,2.783,1.132c1.042,0,2.084-0.406,2.869-1.21c2.287-2.358,5.336-3.654,8.592-3.654h15.988
			c2.209,0,3.997-1.788,3.997-3.997C119.916,153.688,118.128,151.9,115.919,151.9z"/>
	</g>
</g>
<g>
	<g>
		<path d="M342.584,169.06c-1.561-1.561-4.09-1.561-5.651,0l-23.983,23.991c-1.562,1.561-1.562,4.09,0,5.652
			c0.78,0.78,1.804,1.171,2.826,1.171c1.022,0,2.046-0.391,2.826-1.171l23.982-23.991
			C344.146,173.151,344.146,170.622,342.584,169.06z"/>
	</g>
</g>
<g>
	<g>
		<path d="M326.596,153.071c-1.561-1.562-4.09-1.562-5.652,0l-23.983,23.991c-1.561,1.561-1.561,4.09,0,5.652
			c0.781,0.781,1.804,1.171,2.826,1.171c1.023,0,2.046-0.39,2.826-1.171l23.983-23.991
			C328.158,157.162,328.157,154.633,326.596,153.071z"/>
	</g>
</g>
<g>
	<g>
		<path d="M179.873,207.86H99.931c-2.21,0-3.998,1.788-3.998,3.997s1.788,3.997,3.998,3.997h79.942c2.21,0,3.997-1.787,3.997-3.997
			C183.87,209.648,182.082,207.86,179.873,207.86z"/>
	</g>
</g>
<g>
	<g>
		<path d="M131.907,231.851H99.93c-2.21,0-3.998,1.788-3.998,3.997c0,2.209,1.788,3.997,3.998,3.997h31.977
			c2.21,0,3.997-1.788,3.997-3.997C135.904,233.639,134.117,231.851,131.907,231.851z"/>
	</g>
</g>
<g>
	<g>
		<path d="M155.891,255.842h-31.978c-2.209,0-3.997,1.787-3.997,3.997s1.788,3.993,3.997,3.993h31.978
			c2.209,0,3.997-1.783,3.997-3.993S158.1,255.842,155.891,255.842z"/>
	</g>
</g>
<g>
	<g>
		<path d="M163.885,231.851h-15.989c-2.209,0-3.997,1.788-3.997,3.997c0,2.209,1.788,3.997,3.997,3.997h15.989
			c2.209,0,3.997-1.788,3.997-3.997C167.882,233.639,166.094,231.851,163.885,231.851z"/>
	</g>
</g>
<g>
	<g>
		<path d="M211.851,207.86h-15.989c-2.209,0-3.997,1.788-3.997,3.997s1.788,3.997,3.997,3.997h15.989
			c2.209,0,3.997-1.787,3.997-3.997C215.848,209.648,214.06,207.86,211.851,207.86z"/>
	</g>
</g>
<g>
	<g>
		<path d="M267.81,231.851h-15.988c-2.209,0-3.997,1.788-3.997,3.997c0,2.209,1.788,3.997,3.997,3.997h15.988
			c2.209,0,3.997-1.788,3.997-3.997C271.807,233.639,270.019,231.851,267.81,231.851z"/>
	</g>
</g>
<g>
	<g>
		<path d="M107.925,255.842h-7.994c-2.21,0-3.998,1.787-3.998,3.997s1.788,3.993,3.998,3.993h7.994c2.209,0,3.997-1.783,3.997-3.993
			S110.134,255.842,107.925,255.842z"/>
	</g>
</g>
<g>
	<g>
		<path d="M267.81,207.86h-39.971c-2.209,0-3.997,1.788-3.997,3.997s1.788,3.997,3.997,3.997h39.971
			c2.209,0,3.997-1.787,3.997-3.997C271.807,209.648,270.019,207.86,267.81,207.86z"/>
	</g>
</g>
<g>
	<g>
		<path d="M235.833,231.851h-55.96c-2.209,0-3.997,1.788-3.997,3.997c0,2.209,1.788,3.997,3.997,3.997h55.96
			c2.21,0,3.998-1.788,3.998-3.997C239.831,233.639,238.043,231.851,235.833,231.851z"/>
	</g>
</g>
<g>
	<g>
		<path d="M267.81,255.842h-95.931c-2.209,0-3.997,1.787-3.997,3.997s1.788,3.993,3.997,3.993h95.931
			c2.209,0,3.997-1.783,3.997-3.993S270.019,255.842,267.81,255.842z"/>
	</g>
</g>
<g>
	<g>
		<path d="M111.922,311.781c-17.632,0-31.978,14.349-31.978,31.978c0,17.644,14.346,31.977,31.978,31.977
			c17.632,0,31.977-14.333,31.977-31.977C143.899,326.13,129.554,311.781,111.922,311.781z M111.922,367.741
			c-13.225,0-23.983-10.757-23.983-23.982c0-13.225,10.758-23.983,23.983-23.983c13.225,0,23.982,10.758,23.982,23.983
			C135.904,356.983,125.147,367.741,111.922,367.741z"/>
	</g>
</g>
<g>
	<g>
		<path d="M111.922,327.771c-8.819,0-15.989,7.182-15.989,15.989c0,8.821,7.171,15.988,15.989,15.988
			c8.818,0,15.988-7.167,15.988-15.988C127.91,334.954,120.74,327.771,111.922,327.771z M111.922,351.753
			c-4.407,0-7.994-3.576-7.994-7.994c0-4.403,3.587-7.994,7.994-7.994c4.407,0,7.994,3.591,7.994,7.994
			C119.916,348.177,116.329,351.753,111.922,351.753z"/>
	</g>
</g>
<g>
	<g>
		<path d="M255.819,311.781c-17.633,0-31.978,14.349-31.978,31.978c0,17.644,14.346,31.977,31.978,31.977
			c17.628,0,31.977-14.333,31.976-31.977C287.795,326.13,273.446,311.781,255.819,311.781z M255.819,367.741
			c-13.225,0-23.983-10.757-23.983-23.982c0-13.225,10.757-23.983,23.983-23.983c13.225,0,23.982,10.758,23.982,23.983
			C279.801,356.983,269.043,367.741,255.819,367.741z"/>
	</g>
</g>
<g>
	<g>
		<path d="M255.819,327.771c-8.819,0-15.989,7.182-15.989,15.989c0,8.821,7.171,15.988,15.989,15.988
			c8.813,0,15.988-7.167,15.988-15.988C271.807,334.954,264.632,327.771,255.819,327.771z M255.819,351.753
			c-4.408,0-7.995-3.576-7.995-7.994c0-4.403,3.588-7.994,7.995-7.994c4.407,0,7.994,3.591,7.994,7.994
			C263.813,348.177,260.226,351.753,255.819,351.753z"/>
	</g>
</g>
<g>
	<g>
		<path d="M291.793,391.724H83.942c-2.209,0-3.997,1.796-3.997,3.998v87.938c0,2.217,1.788,3.996,3.997,3.996h207.851
			c2.21,0,3.998-1.779,3.998-3.996v-87.938C295.791,393.52,294.003,391.724,291.793,391.724z M287.795,479.662H87.939V399.72
			h199.856V479.662z"/>
	</g>
</g>
<g>
	<g>
		<path d="M107.925,447.686c-2.209,0-3.997,1.795-3.997,3.997v15.988c0,2.218,1.788,3.997,3.997,3.997s3.997-1.78,3.997-3.997
			v-15.988C111.922,449.481,110.134,447.686,107.925,447.686z"/>
	</g>
</g>
<g>
	<g>
		<path d="M155.891,455.68c-2.21,0-3.997,1.795-3.997,3.997v7.994c0,2.218,1.787,3.997,3.997,3.997c2.209,0,3.997-1.78,3.997-3.997
			v-7.994C159.888,457.475,158.1,455.68,155.891,455.68z"/>
	</g>
</g>
<g>
	<g>
		<path d="M123.913,407.714c-2.209,0-3.997,1.796-3.997,3.997v55.96c0,2.218,1.788,3.997,3.997,3.997c2.21,0,3.997-1.78,3.997-3.997
			v-55.96C127.91,409.51,126.122,407.714,123.913,407.714z"/>
	</g>
</g>
<g>
	<g>
		<path d="M267.81,431.697c-2.209,0-3.997,1.795-3.997,3.996v31.978c0,2.218,1.788,3.997,3.997,3.997
			c2.209,0,3.997-1.78,3.997-3.997v-31.978C271.807,433.492,270.019,431.697,267.81,431.697z"/>
	</g>
</g>
<g>
	<g>
		<path d="M171.879,415.708c-2.209,0-3.997,1.796-3.997,3.997v47.966c0,2.218,1.788,3.997,3.997,3.997
			c2.21,0,3.997-1.78,3.997-3.997v-47.966C175.876,417.504,174.088,415.708,171.879,415.708z"/>
	</g>
</g>
<g>
	<g>
		<path d="M139.902,423.702c-2.21,0-3.998,1.796-3.998,3.997v39.972c0,2.218,1.789,3.997,3.998,3.997s3.997-1.78,3.997-3.997
			v-39.972C143.899,425.498,142.112,423.702,139.902,423.702z"/>
	</g>
</g>
<g>
	<g>
		<path d="M187.867,447.686c-2.209,0-3.997,1.795-3.997,3.997v15.988c0,2.218,1.788,3.997,3.997,3.997
			c2.21,0,3.998-1.78,3.998-3.997v-15.988C191.865,449.481,190.077,447.686,187.867,447.686z"/>
	</g>
</g>
<g>
	<g>
		<path d="M235.833,455.68c-2.209,0-3.997,1.795-3.997,3.997v7.994c0,2.218,1.788,3.997,3.997,3.997c2.21,0,3.998-1.78,3.998-3.997
			v-7.994C239.831,457.475,238.043,455.68,235.833,455.68z"/>
	</g>
</g>
<g>
	<g>
		<path d="M203.857,407.714c-2.21,0-3.998,1.796-3.998,3.997v55.96c0,2.218,1.788,3.997,3.998,3.997c2.209,0,3.997-1.78,3.997-3.997
			v-55.96C207.854,409.51,206.066,407.714,203.857,407.714z"/>
	</g>
</g>
<g>
	<g>
		<path d="M251.822,415.708c-2.209,0-3.997,1.796-3.997,3.997v47.966c0,2.218,1.788,3.997,3.997,3.997
			c2.209,0,3.997-1.78,3.998-3.997v-47.966C255.82,417.504,254.031,415.708,251.822,415.708z"/>
	</g>
</g>
<g>
	<g>
		<path d="M219.845,423.702c-2.209,0-3.997,1.796-3.997,3.997v39.972c0,2.218,1.788,3.997,3.997,3.997s3.997-1.78,3.997-3.997
			v-39.972C223.842,425.498,222.054,423.702,219.845,423.702z"/>
	</g>
</g>
<g>
	<g>
		<path d="M211.851,311.782h-55.96c-2.21,0-3.997,1.796-3.997,3.997c0,2.217,1.787,3.997,3.997,3.997h55.96
			c2.209,0,3.997-1.78,3.997-3.997C215.848,313.578,214.06,311.782,211.851,311.782z"/>
	</g>
</g>
<g>
	<g>
		<path d="M211.851,367.742h-55.96c-2.21,0-3.997,1.796-3.997,3.997c0,2.218,1.787,3.997,3.997,3.997h55.96
			c2.209,0,3.997-1.779,3.997-3.997C215.848,369.538,214.06,367.742,211.851,367.742z"/>
	</g>
</g>
<g>
	<g>
		<path d="M115.919,39.972c-2.209,0-3.997,1.788-3.997,3.997v119.922c0,2.209,1.788,3.997,3.997,3.997
			c2.209,0,3.997-1.787,3.997-3.997V43.969C119.916,41.76,118.128,39.972,115.919,39.972z"/>
	</g>
</g>
<g>
	<g>
		<path d="M155.891,0c-24.245,0-43.969,19.728-43.969,43.969c0,2.209,1.788,3.997,3.997,3.997c2.209,0,3.997-1.788,3.997-3.997
			c0-19.838,16.137-35.975,35.975-35.975c2.209,0,3.997-1.788,3.997-3.997S158.1,0,155.891,0z"/>
	</g>
</g>
<g>
	<g>
		<path d="M371.736,39.972c-2.209,0-3.997,1.788-3.997,3.997v335.764c0,2.218,1.788,3.997,3.997,3.997
			c2.209,0,3.997-1.779,3.997-3.997V43.969C375.733,41.76,373.945,39.972,371.736,39.972z"/>
	</g>
</g>
<g>
	<g>
		<path d="M451.679,343.759c-2.21,0-3.998,1.795-3.998,3.997v31.977c0,2.218,1.788,3.997,3.998,3.997
			c2.209,0,3.996-1.779,3.996-3.997v-31.977C455.675,345.554,453.888,343.759,451.679,343.759z"/>
	</g>
</g>
<g>
	<g>
		<path d="M331.764,0c-2.209,0-3.997,1.788-3.997,3.997s1.788,3.997,3.997,3.997c19.838,0,35.975,16.137,35.975,35.975
			c0,2.209,1.788,3.997,3.997,3.997c2.209,0,3.997-1.788,3.997-3.997C375.733,19.728,356.005,0,331.764,0z"/>
	</g>
</g>
<g>
	<g>
		<path d="M291.793,39.972c-2.209,0-3.997,1.788-3.997,3.997v119.922c0,2.209,1.788,3.997,3.997,3.997
			c2.21,0,3.998-1.787,3.998-3.997V43.969C295.791,41.76,294.003,39.972,291.793,39.972z"/>
	</g>
</g>
<g>
	<g>
		<path d="M331.765,0c-24.248,0-43.969,19.728-43.969,43.969c0,2.209,1.788,3.997,3.997,3.997c2.21,0,3.998-1.788,3.998-3.997
			c0-19.838,16.137-35.975,35.974-35.975c2.21,0,3.997-1.788,3.997-3.997S333.975,0,331.765,0z"/>
	</g>
</g>
<g>
	<g>
		<path d="M411.708,415.708c-19.838,0-35.975-16.129-35.975-35.975c0-2.201-1.788-3.997-3.997-3.997
			c-2.209,0-3.997,1.796-3.997,3.997c0,24.249,19.72,43.969,43.969,43.969c2.209,0,3.997-1.78,3.997-3.997
			C415.705,417.504,413.917,415.708,411.708,415.708z"/>
	</g>
</g>
<g>
	<g>
		<path d="M451.68,375.736c-2.21,0-3.998,1.796-3.998,3.997c0,19.846-16.137,35.975-35.974,35.975c-2.21,0-3.997,1.796-3.997,3.997
			c0,2.217,1.787,3.997,3.997,3.997c24.24,0,43.967-19.72,43.968-43.969C455.676,377.532,453.889,375.736,451.68,375.736z"/>
	</g>
</g>
<g>
	<g>
		<path d="M331.765,0.009H155.891c-2.21,0-3.997,1.788-3.997,3.997c0,2.209,1.787,3.997,3.997,3.997h175.873
			c2.21,0,3.998-1.788,3.998-3.997C335.762,1.797,333.975,0.009,331.765,0.009z"/>
	</g>
</g>
<g>
	<g>
		<path d="M453.467,344.181l-15.988-7.994c-1.124-0.562-2.451-0.562-3.576,0l-14.2,7.104l-14.201-7.104
			c-1.124-0.562-2.451-0.562-3.575,0l-14.201,7.104l-14.2-7.104c-1.983-0.999-4.372-0.187-5.364,1.796
			c-0.991,1.966-0.187,4.372,1.788,5.355l15.989,7.994c1.124,0.562,2.451,0.562,3.575,0l14.2-7.104l14.201,7.104
			c1.125,0.562,2.451,0.562,3.576,0l14.2-7.104l14.201,7.104c0.569,0.297,1.178,0.422,1.78,0.422c1.466,0,2.88-0.813,3.583-2.201
			C456.238,347.57,455.443,345.181,453.467,344.181z"/>
	</g>
</g>
<g>
	<g>
		<path d="M411.708,415.708h-71.949c-2.209,0-3.997,1.796-3.997,3.997c0,2.217,1.788,3.997,3.997,3.997h71.949
			c2.209,0,3.997-1.78,3.997-3.997C415.705,417.504,413.917,415.708,411.708,415.708z"/>
	</g>
</g>
<g>
	<g>
		<path d="M337.76,476.259c-1.561-1.562-4.09-1.562-5.652,0l-23.155,23.124c-1.562,1.561-1.562,4.09-0.008,5.652
			c0.78,0.78,1.811,1.171,2.834,1.171c1.022,0,2.045-0.391,2.826-1.171l23.155-23.124
			C339.322,480.35,339.321,477.821,337.76,476.259z"/>
	</g>
</g>
<g>
	<g>
		<path d="M91.296,157.934c-1.561-1.546-4.09-1.553-5.652,0.016L61.06,182.62c-1.561,1.561-1.554,4.091,0.008,5.652
			c0.78,0.774,1.803,1.164,2.822,1.164c1.026,0,2.049-0.39,2.83-1.18l24.584-24.67C92.865,162.025,92.858,159.495,91.296,157.934z"
			/>
	</g>
</g>
<g>
	<g>
		<path d="M291.793,159.894H115.919c-2.209,0-3.997,1.788-3.997,3.997s1.788,3.997,3.997,3.997h175.874
			c2.21,0,3.998-1.787,3.998-3.997C295.791,161.682,294.003,159.894,291.793,159.894z"/>
	</g>
</g>
<g>
	<g>
		<path d="M203.857,39.98c-19.838,0-35.979,16.137-35.979,35.974c0,11.898,6.074,23.092,15.992,29.752v2.225
			c0,2.209,1.788,3.997,3.997,3.997h31.978c2.209,0,3.997-1.787,3.997-3.997v-2.225c9.919-6.659,15.989-17.854,15.989-29.752
			C239.831,56.117,223.694,39.98,203.857,39.98z M217.835,100.038c-1.23,0.718-1.987,2.037-1.987,3.458v0.438h-23.982v-0.438
			c0-1.421-0.758-2.74-1.987-3.458c-8.772-5.098-14.006-14.099-14.006-24.084c0-15.426,12.553-27.98,27.984-27.98
			c15.426,0,27.979,12.554,27.979,27.98C231.836,85.938,226.602,94.94,217.835,100.038z"/>
	</g>
</g>
<g>
	<g>
		<path d="M219.846,103.935h-31.978c-2.209,0-3.997,1.788-3.997,3.997v23.983c0,1.062,0.421,2.076,1.171,2.826l7.994,7.994
			c0.749,0.749,1.764,1.171,2.826,1.171h15.989c1.061,0,2.076-0.422,2.827-1.171l7.994-7.994c0.75-0.749,1.171-1.764,1.171-2.826
			v-23.983C223.843,105.723,222.055,103.935,219.846,103.935z M215.848,130.259l-5.652,5.652h-12.679l-5.652-5.652v-18.331h23.983
			V130.259z"/>
	</g>
</g>
<g>
	<g>
		<path d="M219.845,119.922h-31.978c-2.209,0-3.997,1.788-3.997,3.997c0,2.21,1.788,3.998,3.997,3.998h31.978
			c2.209,0,3.997-1.787,3.997-3.998C223.842,121.71,222.054,119.922,219.845,119.922z"/>
	</g>
</g>
<g>
	<g>
		<path d="M214.679,97.111l-7.995-7.994c-1.561-1.562-4.091-1.562-5.652,0l-7.995,7.994c-1.561,1.561-1.561,4.09,0,5.652
			c1.561,1.562,4.09,1.562,5.652,0l5.168-5.168l5.168,5.168c0.78,0.78,1.803,1.171,2.826,1.171c1.022,0,2.045-0.39,2.828-1.171
			C216.241,101.202,216.241,98.673,214.679,97.111z"/>
	</g>
</g>
<g>
	<g>
		<path d="M211.851,71.956c-2.209,0-3.997,1.789-3.997,3.998v23.983c0,2.209,1.788,3.997,3.997,3.997
			c2.209,0,3.997-1.788,3.997-3.997V75.954C215.848,73.744,214.06,71.956,211.851,71.956z"/>
	</g>
</g>
<g>
	<g>
		<path d="M195.862,71.956c-2.209,0-3.997,1.789-3.997,3.998v23.983c0,2.209,1.788,3.997,3.997,3.997
			c2.209,0,3.997-1.788,3.997-3.997V75.954C199.859,73.744,198.071,71.956,195.862,71.956z"/>
	</g>
</g>
<g>
</g>
<g>
</g>
<g>
</g>
<g>
</g>
<g>
</g>
<g>
</g>
<g>
</g>
<g>
</g>
<g>
</g>
<g>
</g>
<g>
</g>
<g>
</g>
<g>
</g>
<g>
</g>
<g>
</g>
</svg>
