<?xml version="1.0" encoding="iso-8859-1"?>
<!-- Generator: Adobe Illustrator 18.0.0, SVG Export Plug-In . SVG Version: 6.00 Build 0)  -->
<!DOCTYPE svg PUBLIC "-//W3C//DTD SVG 1.1//EN" "http://www.w3.org/Graphics/SVG/1.1/DTD/svg11.dtd">
<svg version="1.1" id="Capa_1" xmlns="http://www.w3.org/2000/svg" xmlns:xlink="http://www.w3.org/1999/xlink" x="0px" y="0px"
	 viewBox="0 0 478.264 478.264" style="enable-background:new 0 0 478.264 478.264;" xml:space="preserve">
<g>
	<path d="M296.791,26.383h-68.399v29.361l57.382-0.055v63.002c0,18.415,14.957,33.364,33.351,33.364l61.748-0.174l0.678,278.288
		c0,10.276-8.321,18.621-18.613,18.621H115.309c-10.275,0-18.627-8.345-18.627-18.621V74.475c0-10.26,8.352-18.612,18.627-18.612
		h2.791v-29.48h-2.791c-26.523,0-48.083,21.584-48.083,48.092V430.17c0,26.51,21.56,48.094,48.083,48.094h247.627
		c26.51,0,48.102-21.584,48.102-48.094V140.212L296.791,26.383z"/>
	<path d="M136.083,128.329c0.361,0.141,0.741,0.211,1.102,0.211c0.787,0,1.561-0.307,2.128-0.896l31.805-32.955
		c0.566-0.576,1.323-0.907,2.127-0.907c0.805,0,1.561,0.331,2.127,0.907l31.805,32.955c0.568,0.59,1.34,0.896,2.129,0.896
		c0.361,0,0.74-0.07,1.103-0.211c1.12-0.45,1.845-1.53,1.845-2.735V12.924c0-7.14-5.784-12.924-12.924-12.924h-52.167
		c-7.14,0-12.923,5.784-12.923,12.924v112.67C134.239,126.799,134.963,127.879,136.083,128.329z"/>
</g>
<g>
</g>
<g>
</g>
<g>
</g>
<g>
</g>
<g>
</g>
<g>
</g>
<g>
</g>
<g>
</g>
<g>
</g>
<g>
</g>
<g>
</g>
<g>
</g>
<g>
</g>
<g>
</g>
<g>
</g>
</svg>
