<svg height="495pt" viewBox="-83 0 495 495.79984" width="495pt" xmlns="http://www.w3.org/2000/svg"><path d="m300.519531 93.621094c15.351563 3.363281 25.070313 18.535156 21.710938 33.886718l-11.359375 51.890626-302.472656-66.230469 11.371093-51.886719c3.355469-15.355469 18.527344-25.082031 33.878907-21.722656l54.492187 11.929687 137.890625 30.203125zm0 0" fill="#fedb41"/><path d="m272.949219 195.621094v251.199218c0 23.800782-16.988281 40.789063-37.949219 40.789063h-179.480469c-20.960937 0-37.949219-16.988281-37.949219-40.789063v-251.199218zm0 0" fill="#00efd1"/><g fill="#083863"><path d="m17.570312 187.800781c-2.09375-.039062-4.117187.769531-5.605468 2.242188-1.492188 1.472656-2.328125 3.480469-2.316406 5.578125v251.199218c0 13.429688 4.691406 25.898438 13.277343 34.925782 8.453125 8.992187 20.253907 14.078125 32.59375 14.054687h179.480469c12.308594.023438 24.074219-5.066406 32.484375-14.054687 8.585937-9.03125 13.164063-21.496094 13.164063-34.925782v-251.199218c.0625-2.074219-.726563-4.078125-2.179688-5.554688-1.453125-1.476562-3.449219-2.292968-5.519531-2.265625zm247.078126 259.019531c0 18.691407-12.574219 32.980469-29.648438 32.980469h-179.480469c-17.070312 0-29.871093-14.289062-29.871093-32.980469v-243.019531h239zm0 0"/><path d="m201.648438 436.039062c4.417968 0 8-3.582031 8-8v-188.78125c0-4.417968-3.582032-8-8-8-4.417969 0-8 3.582032-8 8v188.78125c0 4.417969 3.582031 8 8 8zm0 0"/><path d="m88.648438 436.039062c4.417968 0 8-3.582031 8-8v-188.78125c0-4.417968-3.582032-8-8-8-4.417969 0-8 3.582032-8 8v188.78125c0 4.417969 3.582031 8 8 8zm0 0"/><path d="m310.871094 187.398438c3.757812 0 7.007812-2.617188 7.8125-6.289063l11.359375-51.886719c4.285156-19.667968-8.15625-39.089844-27.8125-43.417968l-46.675781-10.222657 2.917968-13.3125c4.277344-19.664062-8.160156-39.078125-27.8125-43.414062l-82.289062-18.019531c-19.667969-4.28125-39.085938 8.164062-43.414063 27.820312l-2.921875 13.308594-46.675781-10.21875c-19.667969-4.304688-39.101563 8.152344-43.402344 27.820312l-11.371093 51.890625c-.945313 4.316407 1.785156 8.582031 6.097656 9.527344l302.472656 66.230469c.5625.125 1.136719.183594 1.714844.183594zm-190.285156-155.320313c2.425781-11.03125 13.324218-18.019531 24.363281-15.613281l82.285156 18.019531c11.03125 2.429687 18.011719 13.324219 15.613281 24.363281l-2.917968 13.3125-122.261719-26.769531zm-102.660157 74.988281 9.660157-44.078125c2.410156-11.035156 13.316406-18.03125 24.351562-15.613281l192.378906 42.128906 54.492188 11.929688c11.03125 2.429687 18.011718 13.332031 15.605468 24.367187l-9.648437 44.074219zm0 0"/><path d="m145.648438 436.039062c4.417968 0 8-3.582031 8-8v-188.78125c0-4.417968-3.582032-8-8-8-4.417969 0-8 3.582032-8 8v188.78125c0 4.417969 3.582031 8 8 8zm0 0"/></g></svg>